# xmcd
#
# Track frame offsets: 
#        150
#        17215
#        28416
#        47461
#        60962
#        88735
#        104533
#        121348
#        139753
#        156279
#        174175
#        206434
#        230485
#        247288
#        268625
#        285364
#        298397
#        318881
#        345191
#
# Disc length: 4776 seconds
#
# Revision: 0
# Processed by: cddbd v1.5.2PL0 Copyright (c) Steve Scherf et al.
# Submitted via: ExactAudioCopy v0.95b3
#
DISCID=1112a613
DTITLE=The Rolling Stones  - Unsurpassed Masters Vol. 6 1977-1979 - Di
DTITLE=sc 2  FLAC
DYEAR=1900
DGENRE=
TTITLE0=Start Me Up
TTITLE1=Hang Fire 2
TTITLE2=Black Limousine
TTITLE3=So Young
TTITLE4=Yellow Cab
TTITLE5=You Win Again
TTITLE6=Lies
TTITLE7=Never Make You Cry
TTITLE8=Claudine 2
TTITLE9=Where The Boys Go
TTITLE10=Dance
TTITLE11=Summer Romance
TTITLE12=It's Cold Down There
TTITLE13=Linda Lu
TTITLE14=Little T&A
TTITLE15=Let's Go Steady
TTITLE16=No Use In Crying
TTITLE17=I Think I'm Going Mad
TTITLE18=We Had it All
EXTD=
EXTT0=
EXTT1=
EXTT2=
EXTT3=
EXTT4=
EXTT5=
EXTT6=
EXTT7=
EXTT8=
EXTT9=
EXTT10=
EXTT11=
EXTT12=
EXTT13=
EXTT14=
EXTT15=
EXTT16=
EXTT17=
EXTT18=
PLAYORDER=
